<svg xmlns="http://www.w3.org/2000/svg" viewBox="0 0 64 64"><defs><linearGradient id="linear-gradient" x1="2" y1="33.18" x2="61.94" y2="33.18" gradientUnits="userSpaceOnUse"><stop offset="0" stop-color="#17a6d7"/><stop offset="1" stop-color="#9d31fe"/></linearGradient></defs><path d="M61.93 11.5a2 2 0 00-1-1.68s-9-5.21-9-5.22a1.84 1.84 0 00-1.36-.19h-.12a3.71 3.71 0 00-.46.19L32 15 14 4.63a2.43 2.43 0 00-.37-.16h-.22a1.85 1.85 0 00-1.38.2S3 9.83 3 9.82A2.16 2.16 0 002.09 11a3.88 3.88 0 00-.09.58v32.3a2 2 0 001 1.73l8.05 4.65a2.38 2.38 0 001 .27 1.86 1.86 0 001.34-.53 2 2 0 00.66-1.48V35.25a.09.09 0 01.11 0c2.63 1.43 4.62 3.84 4.57 6.94v11.38a2 2 0 001 1.7l11.11 6.42A1.82 1.82 0 0032 62a1.84 1.84 0 001.08-.32l11.1-6.41a2.38 2.38 0 00.4-.31v-.05a1.86 1.86 0 00.55-1.32v-11.4c0-3.14 1.94-5.5 4.58-6.95 0 0 .06 0 .15.08V48.5a1.91 1.91 0 00.75 1.5 1.8 1.8 0 001.28.47 2.13 2.13 0 00.7-.14l.13-.06.17-.07 8-4.65a2 2 0 001-1.73c.04-.02.11-32.28.04-32.32zM32 25.39L8 11.55l5-2.88L30.9 19a1.78 1.78 0 001.07.31 1.87 1.87 0 001.1-.31L51 8.67l5 2.88zm-14.3 7.36l-1.29-.85a4.13 4.13 0 00-6.36 3.42V45L6 42.7V15l24 13.86v27.68l-7.19-4.15v-10.2a11.3 11.3 0 00-5.11-9.44zM53.89 45v-9.68a4.12 4.12 0 00-6.35-3.42l-1.31.86a11.31 11.31 0 00-5.07 9.43v10.19L34 56.53V28.86L57.94 15v27.7z" fill="url(#linear-gradient)" id="Layer_71" data-name="Layer 71"/></svg>