<svg xmlns="http://www.w3.org/2000/svg" viewBox="0 0 64 64"><defs><linearGradient id="linear-gradient" x1="2" y1="32" x2="62" y2="32" gradientUnits="userSpaceOnUse"><stop offset="0" stop-color="#17a6d7"/><stop offset="1" stop-color="#9d31fe"/></linearGradient></defs><path d="M60 46.87H49.69L17.13 14.31V4a2 2 0 00-2-2H4a2 2 0 00-2 2v11.13a2 2 0 002 2h3.57v29.74H4a2 2 0 00-2 2V60a2 2 0 002 2h11.13a2 2 0 002-2v-3.57h29.74V60a2 2 0 002 2H60a2 2 0 002-2V48.87a2 2 0 00-2-2zM6 6h7.13v7.13H6zm7.13 52H6v-7.13h7.13zm4-5.57v-3.56a2 2 0 00-2-2h-3.56V17.13h2.74l32.56 32.56v2.74zM58 58h-7.13v-7.13H58z" fill="url(#linear-gradient)" id="Layer_72" data-name="Layer 72"/></svg>