<svg xmlns="http://www.w3.org/2000/svg" xmlns:xlink="http://www.w3.org/1999/xlink" viewBox="0 0 64 64"><defs><linearGradient id="linear-gradient" x1="1.99" y1="32" x2="61.99" y2="32" gradientUnits="userSpaceOnUse"><stop offset="0" stop-color="#17a6d7"/><stop offset="1" stop-color="#9d31fe"/></linearGradient><linearGradient id="linear-gradient-2" x1="16.37" y1="40.85" x2="47.6" y2="40.85" xlink:href="#linear-gradient"/></defs><g id="Layer_66" data-name="Layer 66"><path d="M61.24 27.47l-28-22a2 2 0 00-2.48 0l-28 22a2 2 0 002.48 3.14l4.35-3.43V57a2 2 0 002 2h40.82a2 2 0 002-2V27.18l4.35 3.43a2 2 0 002.48-3.14zM50.41 55H13.59V24L32 9.54 50.41 24z" fill="url(#linear-gradient)"/><path d="M30.25 30.13c-7.83-7.38-18.79 3.68-11.47 11.47l11.81 11.81a1.32 1.32 0 00.26.22 2 2 0 002.2 0l.08-.07a1.57 1.57 0 00.25-.2L45.23 41.6a8 8 0 002.37-5.73c.12-7.11-8.9-10.85-13.85-5.74L32 31.88zm12.15 8.64L32 49.17l-10.4-10.4c-3.74-3.93 1.89-9.55 5.82-5.81l3.17 3.16a2 2 0 001.27.59h.27a1.93 1.93 0 001.29-.59L36.58 33c3.94-3.78 9.55 1.85 5.82 5.77z" fill="url(#linear-gradient-2)"/></g></svg>