<svg width="24" height="24" fill="none" xmlns="http://www.w3.org/2000/svg"><path fill-rule="evenodd" clip-rule="evenodd" d="M9.193 4.157c-1.266.52-2.48 1.409-3.16 2.907-1.373 3.018.24 5.324 1.193 6.089a.5.5 0 11-.625.78c-1.185-.95-3.1-3.718-1.479-7.283.816-1.793 2.264-2.832 3.691-3.418a10.2 10.2 0 013.713-.732c1.117 0 2.695.2 4.076 1.074 1.407.89 2.553 2.445 2.835 5.029.45 4.1-1.602 6.762-3.818 7.473-1.317.422-3.176.368-4.544-.745a4.123 4.123 0 01-.357-.326c-.775 2.268-1.67 4.614-2.269 6.174a.5.5 0 11-.933-.358c.631-1.644 1.584-4.142 2.378-6.499l.106-.316c-.641-1.225-.848-2.961-.37-5.303.182-.885.742-1.523 1.493-1.46.733.062 1.182.76 1.182 1.56 0 .613-.176 1.496-.436 2.486a46.539 46.539 0 01-.777 2.595c.184.27.393.491.614.671 1.037.844 2.519.918 3.607.569 1.685-.54 3.537-2.696 3.13-6.412-.251-2.302-1.243-3.576-2.376-4.293-1.158-.733-2.52-.919-3.54-.919-.767 0-2.062.135-3.334.657zm1.307 8.285c.15-.495.286-.968.402-1.408.26-.987.403-1.76.403-2.23 0-.488-.235-.562-.266-.564-.026-.002-.086.002-.168.084-.086.086-.195.262-.26.58-.304 1.488-.303 2.645-.111 3.538z" fill="#000"/></svg>