<?xml version="1.0" encoding="UTF-8" standalone="no"?> <svg xmlns="http://www.w3.org/2000/svg" xmlns:xlink="http://www.w3.org/1999/xlink" viewBox="0 0 64 64"><defs><style>.cls-1{fill:url(#linear-gradient);}</style><linearGradient id="linear-gradient" x1="2" y1="32" x2="62" y2="32" gradientUnits="userSpaceOnUse"><stop offset="0" stop-color="#17a6d7"/><stop offset="1" stop-color="#9d31fe"/></linearGradient></defs><g id="Layer_72" data-name="Layer 72"><path class="cls-1" d="M60,46.87H49.69L17.13,14.31V4a2,2,0,0,0-2-2H4A2,2,0,0,0,2,4V15.13a2,2,0,0,0,2,2H7.57V46.87H4a2,2,0,0,0-2,2V60a2,2,0,0,0,2,2H15.13a2,2,0,0,0,2-2V56.43H46.87V60a2,2,0,0,0,2,2H60a2,2,0,0,0,2-2V48.87A2,2,0,0,0,60,46.87ZM6,6h7.13v7.13H6Zm7.13,52H6V50.87h7.13Zm4-5.57V48.87a2,2,0,0,0-2-2H11.57V17.13h2.74L46.87,49.69v2.74ZM58,58H50.87V50.87H58Z"/></g></svg>