<?xml version="1.0" encoding="UTF-8" standalone="no"?> <svg xmlns="http://www.w3.org/2000/svg" xmlns:xlink="http://www.w3.org/1999/xlink" viewBox="0 0 64 64"><defs><style>.cls-1{fill:url(#linear-gradient);}.cls-2{fill:url(#linear-gradient-2);}</style><linearGradient id="linear-gradient" x1="1.99" y1="32" x2="61.99" y2="32" gradientUnits="userSpaceOnUse"><stop offset="0" stop-color="#17a6d7"/><stop offset="1" stop-color="#9d31fe"/></linearGradient><linearGradient id="linear-gradient-2" x1="16.37" y1="40.85" x2="47.6" y2="40.85" xlink:href="#linear-gradient"/></defs><g id="Layer_66" data-name="Layer 66"><path class="cls-1" d="M61.24,27.47l-28-22a2,2,0,0,0-2.48,0l-28,22a2,2,0,0,0,2.48,3.14l4.35-3.43V57a2,2,0,0,0,2,2H52.41a2,2,0,0,0,2-2V27.18l4.35,3.43a2,2,0,0,0,2.48-3.14ZM50.41,55H13.59V24L32,9.54,50.41,24Z"/><path class="cls-2" d="M30.25,30.13c-7.83-7.38-18.79,3.68-11.47,11.47L30.59,53.41a1.32,1.32,0,0,0,.26.22l0,0a2,2,0,0,0,2.2,0l.08-.07a1.57,1.57,0,0,0,.25-.2L45.23,41.6a8,8,0,0,0,2.37-5.73c.12-7.11-8.9-10.85-13.85-5.74L32,31.88ZM42.4,38.77,32,49.17,21.6,38.77c-3.74-3.93,1.89-9.55,5.82-5.81l3.17,3.16a2,2,0,0,0,1.27.59h.27a1.93,1.93,0,0,0,1.29-.59L36.58,33C40.52,29.22,46.13,34.85,42.4,38.77Z"/></g></svg>