<?xml version="1.0" encoding="UTF-8" standalone="no"?> <svg xmlns="http://www.w3.org/2000/svg" xmlns:xlink="http://www.w3.org/1999/xlink" viewBox="0 0 64 64"><defs><style>.cls-1{fill:url(#linear-gradient);}</style><linearGradient id="linear-gradient" x1="2" y1="33.18" x2="61.94" y2="33.18" gradientUnits="userSpaceOnUse"><stop offset="0" stop-color="#17a6d7"/><stop offset="1" stop-color="#9d31fe"/></linearGradient></defs><g id="Layer_71" data-name="Layer 71"><path class="cls-1" d="M61.93,11.5a2,2,0,0,0-1-1.68s-9-5.21-9-5.22a1.84,1.84,0,0,0-1.36-.19l-.12,0a3.71,3.71,0,0,0-.46.19L32,15,14,4.63a2.43,2.43,0,0,0-.37-.16l-.08,0-.14,0a1.85,1.85,0,0,0-1.38.2S3,9.83,3,9.82A2.16,2.16,0,0,0,2.09,11a3.88,3.88,0,0,0-.09.58v32.3a2,2,0,0,0,1,1.73l8.05,4.65a2.38,2.38,0,0,0,1,.27A1.86,1.86,0,0,0,13.39,50a2,2,0,0,0,.66-1.48l0-13.27a.09.09,0,0,1,.11,0c2.63,1.43,4.62,3.84,4.57,6.94,0,.05,0,11.34,0,11.38a2,2,0,0,0,1,1.7l11.11,6.42A1.82,1.82,0,0,0,32,62h0a1.84,1.84,0,0,0,1.08-.32l11.1-6.41a2.38,2.38,0,0,0,.4-.31l0-.05a1.86,1.86,0,0,0,.55-1.32s0-11.36,0-11.4c0-3.14,1.94-5.5,4.58-6.95,0,0,.06,0,.15.08V48.5A1.91,1.91,0,0,0,50.61,50a1.8,1.8,0,0,0,1.28.47,2.13,2.13,0,0,0,.7-.14l.13-.06.17-.07,8-4.65a2,2,0,0,0,1-1.73C61.93,43.8,62,11.54,61.93,11.5ZM32,25.39,8,11.55l5-2.88L30.9,19a1.78,1.78,0,0,0,1.07.31h0A1.87,1.87,0,0,0,33.07,19L51,8.67l5,2.88ZM17.7,32.75l-1.29-.85a4.13,4.13,0,0,0-6.36,3.42V45L6,42.7V15L30,28.86V56.54l-7.19-4.15V42.19A11.3,11.3,0,0,0,17.7,32.75ZM53.89,45V35.32a4.12,4.12,0,0,0-6.35-3.42l-1.31.86a11.31,11.31,0,0,0-5.07,9.43V52.38L34,56.53V28.86L57.94,15V42.7Z"/></g></svg>